<svg xmlns="http://www.w3.org/2000/svg" viewBox="0 0 64.9 64.88"><defs><style>.cls-1{fill:#aec65a;stroke:#ffffff;fill-rule:evenodd;}</style></defs><title>american_1</title><g id="Layer_2" data-name="Layer 2"><g id="Capa_1" data-name="Capa 1"><path class="cls-1" d="M64.9,0H0V30.24l2.47-5.8H5.7l1.9,4.47V24.44h4.56l1.54,3.9,1.61-3.9H32.39l.43,0,.4,0,.38,0,.35.07.34.09.32.12.29.13.18.11.17.11.15.11.1.09v-.93H39.2v1.19l.05-.07.2-.17.21-.16.22-.15.23-.13.24-.11.25-.1.26-.08.27-.06.27-.06.29,0,.29,0,.3,0H49.2l2.16,5.08V24.44h3.7l1.27,2.33V24.44h3.61v9.34H56.33L55,31.39v2.39H49l-.71-1.67H46.87l-.72,1.67H41.63l-.16,0-.14,0-.16,0-.43-.1-.41-.15-.4-.2L39.57,33l-.33-.29,0-.05v1.13H32.77L32.49,33l0-.14,0-.14,0-.14,0-.16,0-.17,0-.19,0-.18,0-.13,0-.11,0-.09,0-.09,0-.06,0-.05,0,0h0v0h0l0,0h0l0,0-.07,0-.09,0-.11,0H30.66v2.74H15.92V32.41l-.59,1.37H12l-.45-1.1v1.1h-6l-.71-1.67H3.37l-.71,1.67H0v31.1H64.9V45.93l-.05.06-.25.2-.27.17-.28.13-.3.1-.29.06-.16,0h-.15l-.16,0-.17,0H57.49v-.62l-.08.07-.27.17-.28.13-.3.1-.29.06-.16,0H56l-.15,0-.17,0H40.34l-.25-.85,0-.13,0-.14,0-.14,0-.15,0-.18,0-.18,0-.18,0-.14,0-.11,0-.1,0-.08,0-.07,0-.05,0,0h0v0h0l0,0h0l0,0h0l-.07,0-.09,0-.11,0h-.69v2.76H34.93V43.14l-.09.09-.14.14-.14.11-.13.1-.13.09-.14.08-.14.08-.15.06-.15.06-.15.06-.16,0-.15,0-.16,0-.16,0-.17,0-.17,0H30.33v2.53H25.45L24,44.94l-1.37,1.81H13.25V37.41h9.58l1.23,1.69,1.33-1.69h7l.23,0,.22,0,.21,0,.2,0,.21,0,.29.1.27.12.26.15.24.17.23.2.19.2V37.41H40.1l.4,0,.36,0,.35,0,.34.06.32.09.3.12.27.14.17.12.16.11h0v-.76h8.27v.69l.2-.15.27-.16.29-.13.29-.1.3-.07.3,0,.12,0h5.46v.67l.17-.13.27-.16.28-.13.29-.1.3-.07.3,0,.12,0H64.9V0ZM51.2,43.36h.36l-.26-.15L51.06,43l-.14-.13-.12-.12-.11-.13-.11-.13-.09-.14v.87h.71v.12Zm7.45-.06v.05h.09l-.1-.05ZM21,42.76l.59-.73L21,41.31v1.46ZM44.54,27.84H42.43l-.13,0-.1,0-.07,0-.06,0,0,0,0,0h0l0,0,0,.07,0,.1,0,.13,0,.18,0,.2v.56l0,.28,0,.23L42,30l.05.13,0,.08,0,0,0,0,0,0,.05,0,.08,0,.11,0h.13l.15,0h.8l1.09-2.55Z"/><path class="cls-1" d="M14.26,29.51h1.68l-1.37,3.2h-2l-2.22-5.44v5.44H8.57V25.46h2.79l2.23,5.66.67-1.61Zm2.65,0h1.82v3.2H16.91v-3.2Zm3.73,0h5.62v.15h-3.9v1.65H27v1.4H20.64v-3.2Zm7.14,0H34l-.25.08a2.56,2.56,0,0,1,.75.32,1.47,1.47,0,0,1,.46.5,1.8,1.8,0,0,1,.22.5,4.67,4.67,0,0,1,.11.71,4.39,4.39,0,0,0,.2,1.09h-2a5.17,5.17,0,0,1-.2-1,2.56,2.56,0,0,0-.27-1,1.33,1.33,0,0,0-.59-.53A3.54,3.54,0,0,0,31,30H29.58v2.75h-1.8v-3.2Zm8.79,0h1.58v3.2H36.57v-3.2Zm2.51,0h1.76a2.2,2.2,0,0,0,.61,1.56,2.28,2.28,0,0,0,1.39.35h1.33L45,29.51h1.68l-.09.23h2.12l-.1-.23h1.67l1.36,3.2H49.76L49,31H46.21l-.72,1.68h-3a6.51,6.51,0,0,1-1.14-.07,2.56,2.56,0,0,1-1.95-1.49,4.39,4.39,0,0,1-.37-1.63Zm13.38,0H54v3.2H52.46v-3.2Zm2.72,0h1.52l.74,1.35V29.51H59v3.2H57l-1.82-3.2Zm3.78,0H57.45V25.46H59v4.05Zm-2.25,0H55.18L54,27.39v2.12H52.46V25.46h2l2.22,4.05Zm-6.45,0H48.59l-1-2.31-1,2.31H45l1.73-4.05h1.82l1.72,4.05Zm-9.42,0H39.08c0-.13,0-.27,0-.4a4.34,4.34,0,0,1,.58-2.38,2.4,2.4,0,0,1,1.13-1,4.64,4.64,0,0,1,1.83-.3h2.53v1.29H42.79a2,2,0,0,0-1.56.56A2.5,2.5,0,0,0,40.81,29c0,.19,0,.38,0,.55Zm-2.69,0H36.57V25.46h1.58v4.05Zm-4.1,0H27.78V25.46h4.14a5.7,5.7,0,0,1,2.49.38,2,2,0,0,1,.74.69,1.75,1.75,0,0,1,.27.95,2,2,0,0,1-.61,1.59,2.39,2.39,0,0,1-.76.44Zm-7.79,0H20.64V25.46h6.18v1.36H22.36v1.46h3.9v1.23Zm-7.52,0H16.91V27.27l-1,2.24H14.26l1.68-4.05h2.79v4.05ZM51.4,45.72V44.43h3.2a2.17,2.17,0,0,0,1-.16.74.74,0,0,0,.37-.68.83.83,0,0,0-.43-.78,1.71,1.71,0,0,0-.79-.14h-1.3a2.67,2.67,0,0,1-1.72-.45,2,2,0,0,1-.51-.71,2.27,2.27,0,0,1-.18-.91,2.46,2.46,0,0,1,.43-1.4,1.77,1.77,0,0,1,1.35-.71,9,9,0,0,1,.94,0h3.48v1.3H54.13a4.84,4.84,0,0,0-.94.06.68.68,0,0,0-.48.75.69.69,0,0,0,.41.69,2.15,2.15,0,0,0,.88.12h1.12a3.88,3.88,0,0,1,1.29.16,1.61,1.61,0,0,1,1,.91,2.79,2.79,0,0,1,.23,1.13,2.47,2.47,0,0,1-.29,1.19,1.68,1.68,0,0,1-1.24.88,8,8,0,0,1-1.2.07Zm-7.55-7.24H50v1.35H45.57v1.47h3.9v1.38h-3.9v1.65h4.61v1.4H43.85V38.48Zm-29.62,0h8L24,40.86l1.88-2.39h5.7a6.5,6.5,0,0,1,1.58.14,2.15,2.15,0,0,1,1.25,1,2.23,2.23,0,0,1,.35,1.22,2.49,2.49,0,0,1-.23,1.05,2.14,2.14,0,0,1-.62.81,2.1,2.1,0,0,1-.76.4,5.17,5.17,0,0,1-1.11.1H29.25v2.53H25.93L24,43.24l-1.9,2.48H14.23V38.48Zm6.19.56v.79H16v1.47h3.9v1.38H16v1.65h4.61l.43,0,1.87-2.29-2.44-3Zm38.19,6.69V44.43h3.2a2.13,2.13,0,0,0,1-.16.74.74,0,0,0,.37-.68.84.84,0,0,0-.43-.78,1.67,1.67,0,0,0-.79-.14H60.7A2.7,2.7,0,0,1,59,42.23a2,2,0,0,1-.51-.71,2.15,2.15,0,0,1-.18-.91,2.46,2.46,0,0,1,.43-1.4,1.77,1.77,0,0,1,1.35-.71,9,9,0,0,1,.94,0h3.48v1.3H61.33a4.82,4.82,0,0,0-.93.06c-.32.09-.48.33-.48.75a.69.69,0,0,0,.4.69,2.19,2.19,0,0,0,.89.12h1.12a3.87,3.87,0,0,1,1.29.16,1.63,1.63,0,0,1,1,.91,2.85,2.85,0,0,1,.23,1.13,2.39,2.39,0,0,1-.3,1.19,1.66,1.66,0,0,1-1.23.88,8,8,0,0,1-1.21.07Zm-21-4h2.27a1.47,1.47,0,0,0,.81-.16.94.94,0,0,0,.37-.84.81.81,0,0,0-.55-.85,2.49,2.49,0,0,0-.63-.06H37.6v1.91Zm0,1.29v2.75H36V38.47H39.7a4.54,4.54,0,0,1,2.23.39,1.72,1.72,0,0,1,.66.69,1.87,1.87,0,0,1,.24.94,2.18,2.18,0,0,1-.55,1.6,2.28,2.28,0,0,1-.91.52,2.35,2.35,0,0,1,.68.31,1.72,1.72,0,0,1,.41.5,2.68,2.68,0,0,1,.2.5,6,6,0,0,1,.09.71A4.42,4.42,0,0,0,43,45.72H41.13a5.79,5.79,0,0,1-.17-1,2.89,2.89,0,0,0-.24-1,1.29,1.29,0,0,0-.53-.53A2.83,2.83,0,0,0,38.9,43ZM27.54,39.19l-2.39,2.87L27.54,45v-5.8Zm1.71,2.71H31.6a1.53,1.53,0,0,0,.88-.18,1.06,1.06,0,0,0,.38-.94.88.88,0,0,0-.57-.94,2,2,0,0,0-.65-.07H29.25V41.9ZM4,27.21,2.93,29.75H5.06L4,27.21Zm-4,5.5,3.09-7.25H4.91L8,32.71H6.13L5.41,31H2.59l-.73,1.68Zm29.58-4h2.54a1.81,1.81,0,0,0,.9-.16.9.9,0,0,0,.4-.84.8.8,0,0,0-.61-.86,3.07,3.07,0,0,0-.7-.06H29.58v1.92Z"/></g></g></svg>