<svg xmlns="http://www.w3.org/2000/svg" viewBox="0 0 13.62 15.03"><defs><style>.cls-1{fill:#fff;}</style></defs><title>Recurso 1home</title><g id="Capa_2" data-name="Capa 2"><g id="Capa_1-2" data-name="Capa 1"><path class="cls-1" d="M5.92,9.92A.52.52,0,0,0,5.4,9.4H3.48A.52.52,0,0,0,3,9.92v1.92a.52.52,0,0,0,.52.52H5.4a.52.52,0,0,0,.52-.52ZM4,10.44h.88v.88H4Zm9.45-5L12.14,2.13V.59a.6.6,0,0,0-.6-.59H2.08a.59.59,0,0,0-.6.59V2.13L.17,5.46A.59.59,0,0,0,0,5.88v1.5a.55.55,0,0,0,.59.54H13a.55.55,0,0,0,.6-.54V5.88A.59.59,0,0,0,13.45,5.46ZM11,1.18v.74H2.66V1.18Zm1.48,5.56H1.18V6.12L2.4,3h8.82l1.21,3.16Zm.3,2.38v5.31a.6.6,0,0,1-.59.6h-2a.58.58,0,0,1-.6-.57V11.32H8.14v3.11a.61.61,0,0,1-.6.6h-6a.6.6,0,0,1-.6-.6V9.12a.59.59,0,0,1,1.18,0v4.72H7V10.68a.54.54,0,0,1,.58-.54h2.57a.52.52,0,0,1,.55.54v3.16h.88V9.12a.6.6,0,0,1,1.19,0Z"/></g></g></svg>