<svg xmlns="http://www.w3.org/2000/svg" viewBox="0 0 27.33 12.6"><defs><style>.cls-1{fill:#aec65a;fill-rule:evenodd; stroke:#fff;}</style></defs><title>Recurso 1ico-oxxo</title><g id="Capa_2" data-name="Capa 2"><g id="Capa_1-2" data-name="Capa 1"><path class="cls-1" d="M0,11.36v.39a.85.85,0,0,0,.85.85H26.48a.85.85,0,0,0,.85-.85v-.39Z"/><path class="cls-1" d="M27.33,1.24V.85A.85.85,0,0,0,26.48,0H.85A.85.85,0,0,0,0,.85v.39Z"/><path class="cls-1" d="M23.16,3.87a2.27,2.27,0,1,0,2.27,2.27,2.27,2.27,0,0,0-2.27-2.27Z"/><path class="cls-1" d="M4.45,3.87A2.27,2.27,0,1,0,6.73,6.14,2.27,2.27,0,0,0,4.45,3.87Z"/><path class="cls-1" d="M23,1.87c-2.1-.05-3.08,1.3-4.52,3L17.11,6.4,19.25,9a.68.68,0,1,1-1.07.85l-2-2.36L14.27,9.69a.68.68,0,1,1-1-.87l2.09-2.44L13.94,4.75l.88-1.1,1.4,1.68,1.2-1.4a9.89,9.89,0,0,1,2-2.06H0v8.86H4.53c2.11,0,3.06-1.26,4.45-2.95l1.32-1.6L8.1,3.67c-.52-.78.43-1.59,1.05-.88l2,2.32,1.88-2.28a.68.68,0,1,1,1.08.84l-2,2.48,1.41,1.61-.89,1.05-1.4-1.58L10.05,8.65a9.57,9.57,0,0,1-1.93,2.08H27.33V1.87ZM8,6.14A3.59,3.59,0,1,1,4.45,2.55,3.59,3.59,0,0,1,8,6.14ZM23.16,9.72a3.59,3.59,0,1,1,3.59-3.58,3.59,3.59,0,0,1-3.59,3.58Z"/></g></g></svg>