<svg xmlns="http://www.w3.org/2000/svg" viewBox="0 0 22.82 22.82"><defs><style>.cls-1{fill:#aec65a;fill-rule:evenodd; stroke:#fff;}</style></defs><title>Recurso 1ico-american</title><g id="Capa_2" data-name="Capa 2"><g id="Capa_1-2" data-name="Capa 1"><path class="cls-1" d="M22.82,0H0V10.63l.87-2H2l.67,1.58V8.59h1.6L4.81,10l.57-1.37h6.43l.13,0,.12,0,.11,0,.1,0,.06,0,.06,0,.06,0,0,0V8.59h1.3V9l.08-.06.07-.06.07,0,.09-.05.08,0,.09,0,.09,0,.09,0,.1,0,.1,0h2.64l.76,1.79V8.59h1.31l.44.82V8.59h1.27v3.29H19.8L19.32,11v.84H17.23L17,11.29h-.5l-.26.59H14.53l-.06,0-.15,0-.14-.05L14,11.69l-.13-.09-.12-.1v.38H11.52l-.1-.29v-.05l0,0V11h-.54v1H5.59V11.4l-.21.48H4.2L4,11.49v.39H1.93l-.25-.59h-.5l-.25.59H0V22.82H22.82V16.15l0,0-.09.07-.1.05-.09.05-.11,0-.1,0h-2.1v-.22l0,0-.09.05-.1.05-.11,0-.1,0h-5.6l-.09-.3v-.6h-.4v1h-1.3V15.17l0,0-.05,0,0,0-.05,0,0,0-.05,0-.05,0,0,0h-.05l0,0h-.06l-.05,0h-1v.89H8.94l-.49-.64L8,16.44H4.65V13.16H8l.43.59.47-.59h2.77l.07,0,.1,0,.1.05.09,0,.08.06.08.08.07.06v-.39h2.09l.12,0,.12,0,.11,0,.11,0,.09.05.06,0,0,0h0v-.26H18v.24l.07-.05.09-.06.1,0,.1,0,.11,0,.1,0h2v.23l.06,0,.1-.06.09,0,.1,0,.11,0,.1,0h1.78V0ZM18,15.25h.13l-.1-.06L18,15.13l-.05,0,0,0,0-.05,0-.05,0,0v.31H18v0Zm2.62,0v0h0l0,0ZM7.36,15l.21-.26-.21-.25V15Zm8.3-5.25h-.9v.54l0,.08v.06l0,0v0h.5l.38-.9Z"/></g></g></svg>