<svg xmlns="http://www.w3.org/2000/svg" viewBox="0 0 44.75 11.98"><defs><style>.cls-1{fill:#aec65a; stroke:#fff;}</style></defs><title>Recurso 1ico-paypal</title><g id="Capa_2" data-name="Capa 2"><g id="Capa_1-2" data-name="Capa 1"><polygon class="cls-1" points="43.19 1.04 43.19 0.15 42.86 0.15 42.86 0.03 43.65 0.03 43.65 0.15 43.32 0.15 43.32 1.04 43.19 1.04"/><path class="cls-1" d="M43.78,1V0H44l.24.71.05.15,0-.16.25-.7h.18V1h-.13V.19l-.3.85H44.2L43.91.18V1Z"/><path class="cls-1" d="M28.68,3.91A2.8,2.8,0,0,1,27,4.33h-.32a.38.38,0,0,1-.4-.49l.39-1.69a.67.67,0,0,1,.62-.5h.43a2,2,0,0,1,1.12.26.84.84,0,0,1,.38.77,1.44,1.44,0,0,1-.58,1.23m2.8-2.61a1.92,1.92,0,0,0-.71-.76A3.24,3.24,0,0,0,29.64.12,8.64,8.64,0,0,0,28.11,0H25.4a.65.65,0,0,0-.62.49l-1.84,8a.39.39,0,0,0,.39.49h1.31a.67.67,0,0,0,.62-.49l.44-1.93a.67.67,0,0,1,.62-.5h.38a6.07,6.07,0,0,0,3.7-1,3,3,0,0,0,1.33-2.57,2.46,2.46,0,0,0-.25-1.18"/><path class="cls-1" d="M35.45,7.2a3.44,3.44,0,0,1-.68.37,1.74,1.74,0,0,1-.67.15,1.56,1.56,0,0,1-.74-.14.52.52,0,0,1-.26-.49,1,1,0,0,1,.2-.64,1.19,1.19,0,0,1,.55-.37,4.3,4.3,0,0,1,.85-.19l1.08-.11ZM35.05,9h1.63a.66.66,0,0,0,.62-.49l1-4.1a2.75,2.75,0,0,0,0-.34,1.9,1.9,0,0,0,0-.31,1.37,1.37,0,0,0-.74-1.29A5,5,0,0,0,35.26,2a10.47,10.47,0,0,0-1.57.12c-.52.08-.91.15-1.17.22L32.3,3.46c0,.28,0,.5.1.5s.54-.17,1-.3a4.52,4.52,0,0,1,1.18-.18,3.2,3.2,0,0,1,1.18.17.59.59,0,0,1,.39.59,1.1,1.1,0,0,1,0,.18.5.5,0,0,1,0,.12A20.67,20.67,0,0,0,34,4.75a6,6,0,0,0-1.65.45,2.58,2.58,0,0,0-1.12.88,2.41,2.41,0,0,0-.38,1.36,1.54,1.54,0,0,0,.54,1.23,2,2,0,0,0,1.36.48,3.47,3.47,0,0,0,.82-.08,4.65,4.65,0,0,0,.63-.21,3.29,3.29,0,0,0,.53-.3l.49-.33L35.05,9"/><path class="cls-1" d="M42.48.07,40.62,8.46A.67.67,0,0,1,40,9H38.84a.39.39,0,0,1-.39-.5L40.19.57a.66.66,0,0,1,.62-.5h1.67"/><path class="cls-1" d="M5.75,3.92a2.78,2.78,0,0,1-1.64.43H3.79a.39.39,0,0,1-.4-.5l.4-1.69a.66.66,0,0,1,.62-.49h.42A2,2,0,0,1,6,1.92a.88.88,0,0,1,.38.78,1.43,1.43,0,0,1-.59,1.22m2.81-2.6A2,2,0,0,0,7.84.55,3.16,3.16,0,0,0,6.71.14,7.66,7.66,0,0,0,5.18,0H2.47a.66.66,0,0,0-.62.49L0,8.47a.4.4,0,0,0,.4.5h1.3a.67.67,0,0,0,.62-.5l.45-1.93a.66.66,0,0,1,.62-.49h.37a6.17,6.17,0,0,0,3.71-1A3.05,3.05,0,0,0,8.8,2.49a2.54,2.54,0,0,0-.24-1.17"/><path class="cls-1" d="M12.53,7.21a3.8,3.8,0,0,1-.68.38,1.76,1.76,0,0,1-.68.14,1.5,1.5,0,0,1-.74-.14.5.5,0,0,1-.25-.49,1,1,0,0,1,.19-.63,1.17,1.17,0,0,1,.55-.37,4.21,4.21,0,0,1,.86-.2l1.07-.11ZM12.12,9h1.63a.67.67,0,0,0,.62-.5l1-4.1A2.46,2.46,0,0,0,15.38,4c0-.13,0-.24,0-.32a1.37,1.37,0,0,0-.74-1.28A4.91,4.91,0,0,0,12.34,2a10.38,10.38,0,0,0-1.57.12c-.53.08-.92.16-1.17.22L9.38,3.48c-.06.27,0,.5.1.5s.53-.18,1-.3a4.39,4.39,0,0,1,1.17-.18,3,3,0,0,1,1.18.17.59.59,0,0,1,.4.58c0,.07,0,.13,0,.19a.35.35,0,0,0,0,.12c-.75,0-1.44.11-2.08.2a6,6,0,0,0-1.65.45A2.57,2.57,0,0,0,8.3,6.1a2.37,2.37,0,0,0-.38,1.36,1.58,1.58,0,0,0,.53,1.23,2,2,0,0,0,1.37.47,3.46,3.46,0,0,0,.81-.07,3.66,3.66,0,0,0,.63-.22,3.83,3.83,0,0,0,.54-.3l.49-.32L12.12,9"/><path class="cls-1" d="M22,2a1.06,1.06,0,0,0-.81.5L18.9,6.45l-.63-3.94A.68.68,0,0,0,17.64,2H16.49a.39.39,0,0,0-.4.49L17.1,9c0,.14,0,.26,0,.36l-1.25,2.1c-.17.27-.08.5.2.5h1.35a1.1,1.1,0,0,0,.81-.5L23.86,2Z"/></g></g></svg>