<svg xmlns="http://www.w3.org/2000/svg" viewBox="0 0 37.69 20.8"><defs><style>.cls-1{fill:#aec65a;fill-rule:evenodd; stroke:#fff;}</style></defs><title>Recurso 1ico-visa</title><g id="Capa_2" data-name="Capa 2"><g id="Capa_1-2" data-name="Capa 1"><path class="cls-1" d="M10.78,11.24l3.33-11h3l-3.34,11ZM9.45.24,6.77,4.91A11.09,11.09,0,0,0,5.5,7.52h0c0-1-.09-2.18-.1-2.86L5.06.24h-5l0,.3a2.08,2.08,0,0,1,2.26,2l1,8.73H6.32l6.23-11Zm23.14,11h3l-1-11h-4l-5.86,11H28l.76-1.64H32.5l.09,1.64Zm-.34-6.49.15,2.82H29.79L30.9,5.16c.34-.81,1.11-2.44,1.3-3h0a22.29,22.29,0,0,0,0,2.58Zm-12,6.8c1.85,0,3.61-.5,4.52-2.72.52-1.29,0-2.68-2.07-4L22,4.4c-.91-.57-1.32-1-1-1.6a1.38,1.38,0,0,1,1.27-.57,3.63,3.63,0,0,1,2.31,1l1.63-1.91A6.65,6.65,0,0,0,22.31,0c-2.26,0-3.63,1-4.15,2.2-.81,2-.07,3.07,1.66,4.25l.57.37c1.17.65,1.68,1,1.26,1.76a1.37,1.37,0,0,1-1.3.62,5.4,5.4,0,0,1-3.21-1.08l-1.42,2.17a8.34,8.34,0,0,0,4.49,1.26ZM2.73,20.8a52.71,52.71,0,0,1,32.79-3.29l.15-3.63C20.58,12.23,9.76,17,2.73,20.44v.36ZM36.43,1.94V1.43h.18l.31.51h.22l-.33-.52a.31.31,0,0,0,.31-.33c0-.24-.15-.34-.44-.34h-.45V1.94Zm.22-.67h-.22V.92h.23c.12,0,.26,0,.26.16s-.13.19-.27.19Zm0,1.14a1,1,0,0,0,1-1.08,1.06,1.06,0,1,0-2.11,0,1,1,0,0,0,1.06,1.08Zm0-2a.84.84,0,0,1,.83.89.84.84,0,0,1-.83.89.83.83,0,0,1-.83-.89.83.83,0,0,1,.83-.89Z"/></g></g></svg>