<svg xmlns="http://www.w3.org/2000/svg" viewBox="0 0 80.95 47.92"><defs><style>.cls-1{fill:#aec65a;stroke:#ffffff}.cls-2{fill:#fff;fill-rule:evenodd;}</style></defs><title>mastercard_1</title><g id="Layer_2" data-name="Layer 2"><g id="Capa_1" data-name="Capa 1"><path class="cls-1" d="M80.95,24A24,24,0,0,0,57,0,23.67,23.67,0,0,0,41.9,5.37a25.78,25.78,0,0,1,6.84,11.15h-2a23.82,23.82,0,0,0-6.29-9.91,24,24,0,0,0-6.25,9.89h-2A25.86,25.86,0,0,1,39,5.39,23.93,23.93,0,1,0,24,47.92a23.83,23.83,0,0,0,15-5.39A25.89,25.89,0,0,1,32.21,31.4h2a24,24,0,0,0,6.25,9.89,23.84,23.84,0,0,0,6.29-9.9h2A25.84,25.84,0,0,1,41.9,42.54,23.72,23.72,0,0,0,57,47.92a24,24,0,0,0,24-24Z"/><path class="cls-2" d="M63.34,29.57,65,20.7h2.09l.22.88a2.9,2.9,0,0,1,2.31-.88L69,23c-.6,0-1.71-.16-2.44,2.5l-.75,4.06ZM31.28,18.45l-1.67,8.41c-.46,2.41,1.36,2.75,1.91,2.75a3.47,3.47,0,0,0,1.8-.43l.16-1.79C32.08,27.6,32,27,32.15,26.3l.68-3.58h1.23l.44-1.92H33.2l.49-2.35Zm10.45,7.16c.28-1.41.93-4.94-3.3-4.94-3.9,0-4.39,3.86-4.48,4.42s-.15,4.48,4,4.48a8.33,8.33,0,0,0,3.09-.4l.37-1.83a16.68,16.68,0,0,1-2.71.22c-1,0-2.5.07-2.23-1.95ZM29,22.77,29.55,21a5.72,5.72,0,0,0-2.38-.34c-.34,0-3.23,0-3.68,2.1-.34,1.64.26,2.31.84,2.57a21.39,21.39,0,0,1,1.95,1A.7.7,0,0,1,26,27.66a9.51,9.51,0,0,1-3.19-.21l-.34,1.82a9.75,9.75,0,0,0,2.84.31c.59,0,3.46.15,3.87-2.5a1.93,1.93,0,0,0-.84-2.16,13.44,13.44,0,0,0-1.73-1c-.5-.21-.87-1,0-1.3a8.2,8.2,0,0,1,2.38.12Zm-15.64,6.8,2-10.69h-4L8.47,25.37,8,18.88H4.14L2.07,29.58H4.48L6,21.85l.65,7.73H8.9L12.27,22l-1.42,7.54ZM16,21l-.37,1.92a27.45,27.45,0,0,1,3-.27c.83,0,1.76-.1,1.48,1.24-.62.06-4.94-.62-5.62,3.09A2.34,2.34,0,0,0,17,29.61a3.14,3.14,0,0,0,2-.52l.31.49H21.6l1-4.82c.24-1.21.64-4.11-3.4-4.11A16.62,16.62,0,0,0,16,21Zm39.07.4,1.58-1.58a4,4,0,0,0-3.31-1.42,5.81,5.81,0,0,0-5.44,4.48c-1.23,4.51,1.49,6.74,4,6.74A6.5,6.5,0,0,0,54.83,29l-.71-2.16c-2.48.83-4.24-.44-3.84-3a3.33,3.33,0,0,1,2.94-2.94,3.08,3.08,0,0,1,1.85.44Zm20.55.37c-.46-.34-.74-1-1.89-1-1.32,0-3.4-.25-4.57,3.77-.79,2.68.8,5.13,2.53,5.13a4.25,4.25,0,0,0,2.11-.71l.3.71h2.6l2.1-11.25H76.28l-.65,3.4ZM56.81,21l-.37,1.92a27.36,27.36,0,0,1,3-.27c.83,0,1.76-.1,1.48,1.24-.62.06-4.95-.62-5.63,3.09a2.34,2.34,0,0,0,2.54,2.68,3.14,3.14,0,0,0,2-.52l.31.49H62.4l1-4.82c.25-1.21.65-4.11-3.4-4.11a16.59,16.59,0,0,0-3.15.31ZM36.62,24h3c.16-.86-.12-1.61-1.08-1.61A1.86,1.86,0,0,0,36.62,24ZM19.72,25.62a2.74,2.74,0,0,0-2.07.22c-.78.53-1,1.45-.19,1.76a1.64,1.64,0,0,0,2.07-1l.18-1Zm55-.27a2.91,2.91,0,0,0-.15-2.17c-.74-1-2.45-.2-3,1.73-.34,1.27.4,2.22,1.23,2.22s1.45-.71,1.88-1.79Zm-14.25.27a2.76,2.76,0,0,0-2.07.22c-.77.53-1,1.45-.18,1.76a1.65,1.65,0,0,0,2.07-1l.18-1Zm-18.72,4h2.41l.75-4c.71-2.63,1.85-2.44,2.44-2.44L48,20.8a2.87,2.87,0,0,0-2.29.87l-.21-.87H43.43l-1.64,8.78Z"/></g></g></svg>