<svg xmlns="http://www.w3.org/2000/svg" viewBox="0 0 23.03 15.96"><defs><style>.cls-1{fill:#fff;}</style></defs><title>Recurso 1menu</title><g id="Capa_2" data-name="Capa 2"><g id="Capa_1-2" data-name="Capa 1"><line x1="1.65" y1="1.65" x2="21.37" y2="1.65"/><path class="cls-1" d="M21.37,3.31H1.65A1.66,1.66,0,0,1,1.65,0H21.37a1.66,1.66,0,1,1,0,3.31Z"/><line x1="1.65" y1="7.98" x2="21.37" y2="7.98"/><path class="cls-1" d="M21.37,9.63H1.65a1.65,1.65,0,0,1,0-3.3H21.37a1.65,1.65,0,1,1,0,3.3Z"/><line x1="1.65" y1="14.31" x2="21.37" y2="14.31"/><path class="cls-1" d="M21.37,16H1.65a1.66,1.66,0,0,1,0-3.31H21.37a1.66,1.66,0,1,1,0,3.31Z"/></g></g></svg>