<svg xmlns="http://www.w3.org/2000/svg" viewBox="0 0 77.72 35.82"><defs><style>.cls-1{fill:#aec65a;stroke:#ffffff;fill-rule:evenodd;}</style></defs><title>oxxo</title><g id="Layer_2" data-name="Layer 2"><g id="Capa_1" data-name="Capa 1"><path class="cls-1" d="M0,32.3v1.1a2.42,2.42,0,0,0,2.42,2.42H75.29a2.43,2.43,0,0,0,2.42-2.42V32.3Z"/><path class="cls-1" d="M77.72,3.52V2.42A2.43,2.43,0,0,0,75.29,0H2.42A2.43,2.43,0,0,0,0,2.42v1.1Z"/><path class="cls-1" d="M65.87,11a6.46,6.46,0,1,0,6.45,6.46A6.47,6.47,0,0,0,65.87,11Z"/><path class="cls-1" d="M12.66,11a6.46,6.46,0,1,0,6.46,6.46A6.47,6.47,0,0,0,12.66,11Z"/><path class="cls-1" d="M65.35,5.32c-6-.14-8.78,3.69-12.86,8.42l-3.84,4.45,6.09,7.3c1.45,2.24-1.32,4.46-3,2.41l-5.63-6.71-5.49,6.36c-1.74,2-4.48-.24-3-2.46l6-6.93L39.63,13.5l2.52-3.11,4,4.77,3.43-4c1.68-1.94,3.39-4.54,5.61-5.86H0V30.5H12.89c6,0,8.69-3.57,12.66-8.39l3.75-4.55L23,10.43c-1.5-2.21,1.21-4.5,3-2.48l5.78,6.58L37.13,8c1.7-2.07,4.49.13,3.06,2.38l-5.8,7.07,4,4.56-2.53,3-4-4.5L28.57,24.6c-1.64,2-3.29,4.53-5.48,5.91H77.72V5.32ZM22.86,17.45A10.19,10.19,0,1,1,12.66,7.25a10.21,10.21,0,0,1,10.19,10.2Zm43,10.2a10.2,10.2,0,1,1,10.19-10.2,10.22,10.22,0,0,1-10.19,10.2Z"/></g></g></svg>