<svg xmlns="http://www.w3.org/2000/svg" viewBox="0 0 127.23 34.05"><defs><style>.cls-1{fill:#aec65a;stroke:#ffffff}</style></defs><title>paypal</title><g id="Layer_2" data-name="Layer 2"><g id="Capa_1" data-name="Capa 1"><polygon class="cls-1" points="122.8 2.95 122.8 0.42 121.86 0.42 121.86 0.07 124.12 0.07 124.12 0.42 123.18 0.42 123.18 2.95 122.8 2.95"/><path class="cls-1" d="M124.49,2.95V.07h.57l.68,2,.13.43.16-.46.69-2h.51V2.95h-.36V.54L126,2.95h-.34L124.86.51V2.95Z"/><path class="cls-1" d="M81.54,11.1a7.75,7.75,0,0,1-4.66,1.22H76a1.1,1.1,0,0,1-1.12-1.41L76,6.11A1.92,1.92,0,0,1,77.72,4.7h1.21a5.8,5.8,0,0,1,3.2.73,2.44,2.44,0,0,1,1.08,2.2,4.05,4.05,0,0,1-1.67,3.48m8-7.4a5.62,5.62,0,0,0-2-2.18A9.21,9.21,0,0,0,84.28.35,24.06,24.06,0,0,0,79.92,0H72.21a1.89,1.89,0,0,0-1.77,1.4L65.23,24.05a1.1,1.1,0,0,0,1.12,1.41H70a1.9,1.9,0,0,0,1.77-1.41l1.27-5.49a1.9,1.9,0,0,1,1.76-1.41h1.06q6.77,0,10.54-2.78A8.69,8.69,0,0,0,90.22,7a7.23,7.23,0,0,0-.7-3.34"/><path class="cls-1" d="M100.81,20.46a9.4,9.4,0,0,1-1.93,1.07A5.25,5.25,0,0,1,97,22a4.32,4.32,0,0,1-2.11-.4,1.44,1.44,0,0,1-.72-1.38,2.8,2.8,0,0,1,.55-1.81,3.48,3.48,0,0,1,1.57-1.06,12.42,12.42,0,0,1,2.43-.55c1-.12,2-.23,3.06-.32Zm-1.16,5h4.65a1.9,1.9,0,0,0,1.77-1.41l2.7-11.65a7.71,7.71,0,0,0,.15-1,7.67,7.67,0,0,0,.06-.88,3.91,3.91,0,0,0-2.1-3.65c-1.41-.79-3.6-1.18-6.59-1.18a29.08,29.08,0,0,0-4.47.34q-2.25.35-3.32.62l-.62,3.18c-.16.78,0,1.42.28,1.42.61-.22,1.52-.5,2.73-.85a12.56,12.56,0,0,1,3.34-.51,9,9,0,0,1,3.35.48A1.7,1.7,0,0,1,102.68,12a2.51,2.51,0,0,1-.06.53l-.08.33c-2.11.13-4.08.32-5.9.59a17.36,17.36,0,0,0-4.7,1.28,7.27,7.27,0,0,0-3.17,2.52,6.74,6.74,0,0,0-1.08,3.86,4.45,4.45,0,0,0,1.52,3.51A5.62,5.62,0,0,0,93.11,26a10.14,10.14,0,0,0,2.31-.21,12.81,12.81,0,0,0,1.79-.61,10.56,10.56,0,0,0,1.52-.85l1.4-.93-.48,2"/><path class="cls-1" d="M120.78.2l-5.27,23.86a1.92,1.92,0,0,1-1.77,1.41h-3.3a1.1,1.1,0,0,1-1.12-1.41l5-22.45A1.91,1.91,0,0,1,116,.2h4.74"/><path class="cls-1" d="M16.35,11.15a7.8,7.8,0,0,1-4.66,1.22h-.92A1.11,1.11,0,0,1,9.65,11l1.11-4.81a1.91,1.91,0,0,1,1.77-1.4h1.21a5.74,5.74,0,0,1,3.2.72A2.45,2.45,0,0,1,18,7.67a4.07,4.07,0,0,1-1.67,3.48m8-7.4a5.57,5.57,0,0,0-2-2.17A9.24,9.24,0,0,0,19.08.38,23.94,23.94,0,0,0,14.74,0H7a1.9,1.9,0,0,0-1.77,1.4L0,24.1a1.1,1.1,0,0,0,1.12,1.41H4.86a1.91,1.91,0,0,0,1.77-1.4l1.27-5.5a1.91,1.91,0,0,1,1.77-1.41h1.05q6.77,0,10.54-2.78A8.68,8.68,0,0,0,25,7.09a7.09,7.09,0,0,0-.71-3.34"/><path class="cls-1" d="M35.62,20.51a9.71,9.71,0,0,1-1.93,1.07,5.08,5.08,0,0,1-1.93.42,4.42,4.42,0,0,1-2.1-.4,1.45,1.45,0,0,1-.72-1.39,2.81,2.81,0,0,1,.54-1.8,3.52,3.52,0,0,1,1.58-1.06,12.31,12.31,0,0,1,2.43-.54c.95-.12,2-.23,3.06-.32Zm-1.16,5h4.64a1.9,1.9,0,0,0,1.76-1.4l2.7-11.67a5.88,5.88,0,0,0,.16-1c0-.37.07-.66.07-.89a3.91,3.91,0,0,0-2.11-3.66q-2.1-1.18-6.59-1.18a29.19,29.19,0,0,0-4.47.35c-1.5.23-2.61.43-3.32.62l-.63,3.19c-.15.78,0,1.42.29,1.42.61-.23,1.52-.52,2.73-.86A12.67,12.67,0,0,1,33,9.94a9.06,9.06,0,0,1,3.35.48,1.7,1.7,0,0,1,1.12,1.67,2.92,2.92,0,0,1-.05.52c0,.16-.07.28-.08.34-2.12.12-4.08.32-5.9.58a17.47,17.47,0,0,0-4.7,1.29,7.31,7.31,0,0,0-3.18,2.52,6.72,6.72,0,0,0-1.08,3.86A4.47,4.47,0,0,0,24,24.71a5.64,5.64,0,0,0,3.89,1.35,10.2,10.2,0,0,0,2.32-.21A12,12,0,0,0,32,25.23a10.11,10.11,0,0,0,1.52-.85l1.39-.93-.47,2"/><path class="cls-1" d="M62.58,5.72a3.13,3.13,0,0,0-2.32,1.41L53.73,18.35,51.94,7.15a1.91,1.91,0,0,0-1.77-1.41h-3.3a1.1,1.1,0,0,0-1.12,1.41l2.86,18.5c.05.4.11.74.15,1l-3.55,6c-.48.77-.22,1.41.58,1.41h3.82a3.12,3.12,0,0,0,2.31-1.41L67.85,5.72Z"/></g></g></svg>