<svg xmlns="http://www.w3.org/2000/svg" viewBox="0 0 13.25 12.23"><defs><style>.cls-1{fill:#fff;}</style></defs><title>Recurso 1premiame</title><g id="Capa_2" data-name="Capa 2"><g id="Capa_1-2" data-name="Capa 1"><path class="cls-1" d="M7.79,3.52V2.23a.51.51,0,0,1,1,0V3.52a.51.51,0,1,1-1,0Zm.48,2a.58.58,0,0,0,.41-.17.56.56,0,0,0,0-.82.58.58,0,1,0-.41,1ZM12.12,5a2.75,2.75,0,0,1-1.62.82A3.6,3.6,0,0,1,7.21,8.92v2.14H8.45a.59.59,0,1,1,0,1.17H4.8a.59.59,0,0,1,0-1.17H6V8.92A3.61,3.61,0,0,1,2.75,5.78,2.75,2.75,0,0,1,1.13,5,5.32,5.32,0,0,1,0,1.52.52.52,0,0,1,.51,1H2.69V.58A.57.57,0,0,1,3.26,0H10a.56.56,0,0,1,.56.58V1h2.19a.51.51,0,0,1,.5.5A5.22,5.22,0,0,1,12.12,5ZM1.87,4.25a1.91,1.91,0,0,0,.82.48V2H1A3.78,3.78,0,0,0,1.87,4.25ZM9.39,1.17H3.86V4.94A2.6,2.6,0,0,0,6.62,7.79,2.6,2.6,0,0,0,9.39,4.94Zm2,3.07A3.64,3.64,0,0,0,12.21,2H10.55V4.73A1.87,1.87,0,0,0,11.38,4.24Z"/></g></g></svg>