<svg xmlns="http://www.w3.org/2000/svg" viewBox="0 0 107.18 59.15"><defs><style>.cls-1{fill:#aec65a;stroke:#ffffff;fill-rule:evenodd;}</style></defs><title>visa</title><g id="Layer_2" data-name="Layer 2"><g id="Capa_1" data-name="Capa 1"><path class="cls-1" d="M30.65,32,40.12.69h8.46L39.1,32ZM26.86.7,19.25,14c-1.93,3.46-3.06,5.22-3.61,7.42h-.11c.13-2.79-.25-6.2-.29-8.13L14.39.7H.15L0,1.54c3.66,0,5.83,1.84,6.43,5.6L9.2,32H18L35.69.7ZM92.66,32h8.6L98.45.75H87.17L70.51,32H79.7l2.16-4.65H92.42L92.66,32Zm-1-18.44.43,8H84.7l3.15-6.86c1-2.29,3.18-6.95,3.7-8.51h.12a71.15,71.15,0,0,0,0,7.35ZM57.47,32.85c5.25,0,10.28-1.41,12.84-7.75,1.49-3.67.07-7.61-5.87-11.36L62.49,12.5C59.92,10.9,58.75,9.71,59.63,8c.47-.93,1.83-1.62,3.61-1.62,2.24,0,4.2,1,6.56,2.88l4.63-5.43A18.93,18.93,0,0,0,63.43,0C57,0,53.12,2.7,51.64,6.25c-2.3,5.55-.19,8.73,4.71,12.08L58,19.38c3.3,1.87,4.75,3,3.57,5a3.94,3.94,0,0,1-3.71,1.78c-4.59,0-6.58-1.64-9.12-3.06l-4,6.16a23.69,23.69,0,0,0,12.76,3.58ZM7.77,59.15C29.64,49.77,60.34,41.28,101,49.78l.43-10.31c-42.9-4.69-73.68,9-93.66,18.67v1ZM103.58,5.52V4.07h.52L105,5.52h.63L104.66,4a.87.87,0,0,0,.89-.93c0-.68-.42-1-1.23-1H103V5.52Zm.63-1.92h-.62v-1h.67c.34,0,.74,0,.74.46s-.37.54-.79.54Zm0,3.24a3,3,0,0,0,3-3.07,3,3,0,1,0-6,0,3,3,0,0,0,3,3.07Zm0-5.6a2.37,2.37,0,0,1,2.34,2.53,2.36,2.36,0,1,1-4.7,0,2.37,2.37,0,0,1,2.36-2.53Z"/></g></g></svg>